<?xml version="1.0" encoding="UTF-8" standalone="no"?>
<!DOCTYPE svg PUBLIC "-//W3C//DTD SVG 1.1//EN" "http://www.w3.org/Graphics/SVG/1.1/DTD/svg11.dtd">
<svg width="100%" height="100%" viewBox="0 0 5366 3000" version="1.1" xmlns="http://www.w3.org/2000/svg" xmlns:xlink="http://www.w3.org/1999/xlink" xml:space="preserve" xmlns:serif="http://www.serif.com/" style="fill-rule:evenodd;clip-rule:evenodd;stroke-linejoin:round;stroke-miterlimit:2;">
    <g id="AirJumper">
        <g id="Logo" transform="matrix(1,0,0,1,-1500,-1000)">
            <g id="J" transform="matrix(1,0,0,1,-1000,0)">
                <path d="M3000,2550L3500,2550L3500,3500L3000,4000L2500,3500L2500,2900L3000,3400L3000,2550Z" style="fill:white;"/>
            </g>
            <g id="A" transform="matrix(1,0,0,1,-1000,0)">
                <path d="M3252,1000L2500,2500L3000,2500L3252,2000L3500,2500L4000,2500L3252,1000Z" style="fill:white;"/>
            </g>
        </g>
        <g id="I" transform="matrix(1.01544,0,0,1,-22.3436,-3)">
            <rect x="1641" y="674" width="259" height="850" style="fill:white;"/>
        </g>
        <g id="R">
            <rect x="2021" y="671" width="267" height="850" style="fill:white;"/>
            <path d="M2288,806L2502,806L2502,1037L2288,1037L2288,1150L2530,1521L2814,1521L2583,1147L2682.54,1147C2682.54,1147 2743.11,1131.11 2758,1096C2772.89,1060.89 2758,761 2758,761C2758,761 2765.05,684.451 2682.54,671C2600.03,657.549 2288,671 2288,671" style="fill:white;"/>
        </g>
        <path id="U" d="M1103,1635L1366,1635L1366,2351L1602,2351L1602,1636L1863,1636L1863,2414C1863,2414 1840.51,2477.47 1758,2481C1675.49,2484.53 1208,2481 1208,2481C1208,2481 1104.71,2465.49 1102,2422C1099.29,2378.51 1103,1635 1103,1635Z" style="fill:white;"/>
        <path id="M" d="M1978,1635L2223,1635L2430,2058.78L2639,1635L2882,1635L2882,2482.57L2631,2482.57L2631,2136L2504,2412L2362,2412L2235,2139L2235,2482.57L1978,2482.57L1978,1635Z" style="fill:white;"/>
        <g id="P" transform="matrix(1,0,0,1,974,961.57)">
            <rect x="2021" y="671" width="267" height="850" style="fill:white;"/>
            <path d="M2288,806L2502,806L2502,1037L2288,1037L2288,1231L2583,1228L2682.54,1228C2682.54,1228 2743.11,1212.11 2758,1177C2772.89,1141.89 2758,761 2758,761C2758,761 2765.05,684.451 2682.54,671C2600.03,657.549 2288,671 2288,671" style="fill:white;"/>
        </g>
        <path id="E" d="M3835,1635L4469,1635L4469,1774L4108,1774L4108,1974L4417,1974L4417,2120L4106,2120L4106,2335L4473,2335L4473,2482.57L3837,2482.57L3837,1635" style="fill:white;"/>
        <g id="R1" serif:id="R" transform="matrix(1,0,0,1,2551.08,969.978)">
            <rect x="2021" y="671" width="267" height="850" style="fill:white;"/>
            <path d="M2288,806L2502,806L2502,1037L2288,1037L2288,1150L2530,1521L2814,1521L2583,1147L2682.54,1147C2682.54,1147 2743.11,1131.11 2758,1096C2772.89,1060.89 2758,761 2758,761C2758,761 2765.05,684.451 2682.54,671C2600.03,657.549 2288,671 2288,671" style="fill:white;"/>
        </g>
    </g>
</svg>
